<svg height="512" viewBox="0 0 60 60" width="512" xmlns="http://www.w3.org/2000/svg"><g id="Page-1" fill="none" fill-rule="evenodd"><g id="050---Apple-Bucket" fill="rgb(0,0,0)" fill-rule="nonzero"><path id="Shape" d="m24.31 19c-.4269344-.0010237-.8054284-.2748278-.94-.68-.2521869-.7472051-.3772554-1.5314183-.37-2.32-.0362328-1.4069276.3887043-2.7870951 1.21-3.93.3396551-.4363049.968695-.5146551 1.405-.175.4363049.3396551.5146551.968695.175 1.405-.5537427.7883192-.8314733 1.737525-.79 2.7-.0037724.5703036.0840105 1.1375167.26 1.68.0855507.2519365.0671743.5275791-.0510626.7659296-.1182368.2383504-.3265848.4197553-.5789374.5040704-.1037029.0319869-.2114823.0488274-.32.05h15.25c.2979045-.9719115.4462674-1.9834766.44-3 0-4.42-2.69-8-6-8-.7596764.0007875-1.5077917.18610046-2.18.54-.2606488.13643291-.5356759.24342516-.82.319v-.735c.3597919-1.33683471 1.6195638-2.22875329 3-2.124h2c2.209139 0 4-1.790861 4-4v-1c0-.55228475-.4477153-1-1-1h-2c-2.209139 0-4 1.790861-4 4v.086c-.7167799.11257639-1.399771.38235789-2 .79v-1.876c0-.55228475-.4477153-1-1-1s-1 .44771525-1 1v5.859c-.2843241-.07557484-.5593512-.18256709-.82-.319-.6722083-.35389954-1.4203236-.5392125-2.18-.54-3.31 0-6 3.58-6 8-.0062674 1.0165234.1420955 2.0280885.44 3zm12.69-17h1c0 1.1045695-.8954305 2-2 2h-1c0-1.1045695.8954305-2 2-2z"/><path id="Shape" d="m15.18 10.54c-.6722083-.3538995-1.4203236-.5392125-2.18-.54-3.31 0-6 3.58-6 8 0 .34.02.67.05 1h11.32c-.2520593-.9798845-.3764226-1.9882361-.37-3-.0182707-1.9998353.481253-3.9703702 1.45-5.72-.2195352.0614703-.4310105.1487458-.63.26-.2606488.1364329-.5356759.2434252-.82.319v-5.859c0-.55228475-.4477153-1-1-1s-1 .44771525-1 1v1.876c-.600229-.40764211-1.2832201-.67742361-2-.79v-.086c0-2.209139-1.790861-4-4-4h-2c-.55228475 0-1 .44771525-1 1v1c0 2.209139 1.790861 4 4 4h2c1.381651-.10566487 2.6424467.78823926 3 2.127v.732c-.2843241-.0755748-.5593512-.1825671-.82-.319zm-6.18-6.54h1c1.1045695 0 2 .8954305 2 2h-1c-1.1045695 0-2-.8954305-2-2z"/><path id="Shape" d="m41.63 19h11.32c.03-.33.05-.66.05-1 0-4.42-2.69-8-6-8-.7596764.0007875-1.5077917.1861005-2.18.54-.2606488.1364329-.5356759.2434252-.82.319v-.735c.3597919-1.33683471 1.6195638-2.22875329 3-2.124h2c2.209139 0 4-1.790861 4-4v-1c0-.55228475-.4477153-1-1-1h-2c-2.209139 0-4 1.790861-4 4v.086c-.7167799.11257639-1.399771.38235789-2 .79v-1.876c0-.55228475-.4477153-1-1-1s-1 .44771525-1 1v5.859c-.2843241-.0755748-.5593512-.1825671-.82-.319-.1989895-.1112542-.4104648-.1985297-.63-.26.968747 1.7496298 1.4682707 3.7201647 1.45 5.72.0064226 1.0117639-.1179407 2.0201155-.37 3zm8.37-15h1c0 1.1045695-.8954305 2-2 2h-1c0-1.1045695.8954305-2 2-2z"/><path id="Shape" d="m56 23c0-1.1045695-.8954305-2-2-2h-48c-1.1045695 0-2 .8954305-2 2-2.209139 0-4 1.790861-4 4v5c.0071635 6.0721626 4.92783745 10.9928365 11 11h38c6.0721626-.0071635 10.9928365-4.9278374 11-11v-5c0-2.209139-1.790861-4-4-4zm2 9c-.0055111 4.9682782-4.0317218 8.9944889-9 9h-38c-4.96827817-.0055111-8.99448887-4.0317218-9-9v-5c0-1.1045695.8954305-2 2-2 0 1.1045695.8954305 2 2 2h48c1.1045695 0 2-.8954305 2-2 1.1045695 0 2 .8954305 2 2z"/><path id="Shape" d="m9.48 38.83c.49885859.112479 1.0086184.1694916 1.52.17h1.78l-.79-3.79c-.1159798-.541239.228761-1.0740202.77-1.19s1.0740202.228761 1.19.77l.88 4.21h34.17c.5113816-.0005084 1.0211414-.057521 1.52-.17l2.06-9.83h-45.16zm2.52-8.83c.5522847 0 1 .4477153 1 1s-.4477153 1-1 1-1-.4477153-1-1 .4477153-1 1-1z"/><path id="Shape" d="m16.08 45 2.05 9.79c.1126944.5439009-.2362998 1.0763409-.78 1.19-.06601.0121073-.1328996.0187962-.2.02-.4722189.0010852-.880835-.3283095-.98-.79l-2.13-10.21h-3.04c-.0768024.0016614-.1536316-.001679-.23-.01l2.62 12.55c.4132374 1.5135532 1.822915 2.5365051 3.39 2.46h26.44c1.567085.0765051 2.9767626-.9464468 3.39-2.46l2.62-12.55c-.0763684.008321-.1531976.0116614-.23.01z"/></g></g></svg>