<svg id="Solid" height="512" viewBox="0 0 512 512" width="512" xmlns="http://www.w3.org/2000/svg"><path d="m32 392a8.009 8.009 0 0 0 8 8h216a23.9 23.9 0 0 1 6.131-16h-230.131z"/><path d="m344 392h-64a8 8 0 0 0 0 16h64a8 8 0 0 0 0-16z"/><path d="m122.435 107.886-6.435-12.93-6.435 12.93a8 8 0 0 1 -6.021 4.354l-14.251 2.053 10.267 9.925a8 8 0 0 1 2.323 7.115l-2.438 14.1 12.856-6.7a8 8 0 0 1 7.4 0l12.856 6.7-2.438-14.1a8 8 0 0 1 2.323-7.115l10.267-9.925-14.251-2.053a8 8 0 0 1 -6.023-4.354z"/><path d="m344 328h-64a8 8 0 0 0 0 16h64a8 8 0 0 0 0-16z"/><path d="m344 424h-48a8 8 0 0 0 0 16h48a8 8 0 0 0 0-16z"/><path d="m349.65 282.624c-3.939-11.046-8.865-24.87-8.7-38.141a175.433 175.433 0 0 0 -116.95-44.483c-94.365 0-171.613 74.652-175.81 168h207.81a23.9 23.9 0 0 1 6.131-16 23.984 23.984 0 0 1 17.869-40h75.021c.8-3.354 1.2-10.036-2.61-21.47-.842-2.525-1.774-5.139-2.761-7.906z"/><path d="m448 352h32v96h-32z"/><path d="m416.338 343.764-15.657-36.533-36.132-79.49c-12.311 10.686-7.842 27.037.171 49.509 1.016 2.847 1.975 5.538 2.869 8.22 9.1 27.307-.012 38.267-1.932 40.187a23.954 23.954 0 0 1 -3.788 26.343 23.939 23.939 0 0 1 5.651 11.217c6.834 3.956 23.938 12.783 40.48 12.783a8 8 0 0 1 0 16c-16.859 0-33.345-6.926-43.211-12.031a24.108 24.108 0 0 1 -2.92 4.031 23.943 23.943 0 0 1 0 32 23.943 23.943 0 0 1 4.755 24h65.376v-78.024a39.848 39.848 0 0 1 -15.662-18.212z"/><path d="m344 360h-64a8 8 0 0 0 0 16h64a8 8 0 0 0 0-16z"/><path d="m232 184.174v-16.174h-16v16.179c2.655-.109 5.319-.179 8-.179s5.341.065 8 .174z"/><path d="m230.435 70.886-6.435-12.93-6.435 12.93a8 8 0 0 1 -6.021 4.354l-14.251 2.053 10.267 9.925a8 8 0 0 1 2.323 7.115l-2.438 14.1 12.856-6.7a8 8 0 0 1 7.4 0l12.856 6.7-2.438-14.1a8 8 0 0 1 2.323-7.115l10.267-9.925-14.253-2.053a8 8 0 0 1 -6.021-4.354z"/><path d="m338.435 102.886-6.435-12.93-6.435 12.93a8 8 0 0 1 -6.021 4.354l-14.251 2.053 10.267 9.925a8 8 0 0 1 2.323 7.115l-2.438 14.1 12.856-6.7a8 8 0 0 1 7.4 0l12.856 6.7-2.438-14.1a8 8 0 0 1 2.323-7.115l10.267-9.925-14.251-2.053a8 8 0 0 1 -6.023-4.354z"/></svg>