<svg id="Layer_1" enable-background="new 0 0 512 512" height="512" viewBox="0 0 512 512" width="512" xmlns="http://www.w3.org/2000/svg"><g><path d="m451.263 40.336-192-40c-2.152-.448-4.374-.448-6.526 0l-192 40c-7.42 1.546-12.737 8.085-12.737 15.664v220.235c0 33.158 8.496 66.014 24.57 95.015s39.432 53.62 67.55 71.193l107.4 67.125c2.594 1.622 5.537 2.432 8.48 2.432s5.886-.811 8.48-2.432l107.4-67.125c28.118-17.573 51.476-42.191 67.55-71.193 16.074-29.001 24.57-61.857 24.57-95.015v-220.235c0-7.579-5.318-14.118-12.737-15.664zm-179.263 313.388v5.824c0 8.615-6.621 16.028-15.226 16.434-9.189.432-16.774-6.889-16.774-15.982v-6.253c0-2.195-1.44-4.11-3.533-4.774-22.096-7.019-39.138-25.684-43.437-49.522-1.578-8.749 3.859-17.467 12.588-19.157 8.87-1.717 17.351 4.213 18.832 13.065 2.707 16.167 17.132 27.692 33.793 26.566 15.741-1.064 28.516-13.791 29.669-29.526 1.372-18.725-13.474-34.399-31.912-34.399-35.29 0-64-28.71-64-64 0-28.489 18.711-52.69 44.49-60.959 2.082-.668 3.51-2.579 3.51-4.765v-5.824c0-8.615 6.621-16.028 15.226-16.434 9.188-.433 16.774 6.889 16.774 15.982v6.253c0 2.195 1.44 4.109 3.532 4.774 22.346 7.098 39.523 26.106 43.578 50.332 1.459 8.715-4.423 16.963-13.138 18.422-8.719 1.462-16.963-4.423-18.422-13.139-2.707-16.167-17.132-27.692-33.793-26.566-15.741 1.064-28.516 13.791-29.669 29.526-1.372 18.723 13.474 34.398 31.912 34.398 35.29 0 64 28.71 64 64 0 28.489-18.711 52.69-44.49 60.959-2.082.668-3.51 2.579-3.51 4.765z"/></g></svg>