<svg id="Capa_1" enable-background="new 0 0 512 512" height="512" viewBox="0 0 512 512" width="512" xmlns="http://www.w3.org/2000/svg"><circle cx="256" cy="60" r="60"/><path d="m452 363.509v-61.509h-181v-30h90v-77c0-41.36-33.65-75-75-75h-15v90h-30v-90h-15c-41.35 0-75 33.64-75 75v77h90v30h-181v61.509c-34.192 6.969-60 37.271-60 73.491 0 41.355 33.645 75 75 75s75-33.645 75-75c0-36.219-25.808-66.522-60-73.491v-31.509h151v31.509c-34.192 6.968-60 37.271-60 73.491 0 41.355 33.645 75 75 75s75-33.645 75-75c0-36.219-25.808-66.522-60-73.491v-31.509h151v31.509c-34.192 6.968-60 37.271-60 73.491 0 41.355 33.645 75 75 75s75-33.645 75-75c0-36.22-25.808-66.522-60-73.491z"/></svg>