<svg id="Capa_1" enable-background="new 0 0 512 512" height="512" viewBox="0 0 512 512" width="512" xmlns="http://www.w3.org/2000/svg"><g><path d="m482 467c0-119.009-93.928-217.465-211-225.24v-30.76h-30v30.76c-117.072 7.775-211 106.231-211 225.24v15h-30v30h512v-30h-30z"/><path d="m284.374 56.928-28.374-56.928-28.374 56.928-64.424 9.126 46.626 44.37-10.913 62.139 57.085-29.312 57.07 29.341-10.913-62.154 46.641-44.384z"/><path d="m446.4 113.925-28.403-56.177-28.403 56.177-64.38 9.126 46.626 44.385-10.913 62.124 57.07-29.312 57.085 29.297-10.913-62.109 47.611-44.385z"/><path d="m122.406 113.925-28.403-56.177-28.403 56.177-65.38 9.126 47.611 44.385-10.913 62.124 57.085-29.312 57.07 29.312-10.913-62.124 46.626-44.385z"/></g></svg>